<svg xmlns="http://www.w3.org/2000/svg" width="411" height="663" viewBox="0 0 411 663" fill="none">
<path d="M178.542 555.922C157.612 560.001 131.614 558.899 112.645 549.838C101.893 544.723 94.9533 536.103 91.1639 525.08L82.7918 500.654C82.1529 498.802 82.1749 493.974 83.8713 492.915C89.7759 489.256 99.0292 486.765 106.388 486.875L134.633 487.272C124.718 480.989 115.333 475.169 104.163 472.325C84.5103 467.32 42.9582 476.293 21.8077 480.834C19.0977 481.408 16.4539 481.143 14.3609 478.145C42.826 463.528 52.2557 461.081 84.6865 463.198L137.188 466.637C147.896 471.862 154.88 480.945 159.969 491.24C172.417 493.599 183.962 496.266 194.625 503.255L196.608 453.497L185.702 440.182C176.868 437.294 168.187 432.907 159.617 427.726C108.503 420.252 58.0721 410.861 7.72932 398.405C5.12956 397.766 1.60447 396.09 0.0181786 394.679C-0.730904 383.436 21.8738 377.483 30.2238 375.477C61.0684 371.443 90.6792 368.974 119.673 382.929C111.676 364.146 107.908 346.046 111.499 326.646L77.1957 303.233C56.3976 289.035 32.3829 263.33 51.0219 237.602C89.5556 230.371 119.299 245.098 140.758 277.131C154.219 298.295 162.657 321.421 167.064 346.333C175.524 359.163 183.852 371.553 195.639 381.959L192.665 322.126C179.93 304.997 172.219 320.826 160.983 298.956C153.117 283.678 149.614 267.254 150.077 250.235C150.452 236.17 163.957 221.729 175.105 214.322L163.142 207.223C131.196 222.7 88.8285 212.933 58.1822 198.89C54.9876 197.435 51.7489 196.774 48.7085 194.106C54.3707 187.118 61.6853 185.332 68.9338 181.782C85.4576 173.692 103.259 172.104 120.797 177.88C134.809 182.488 145.516 191.416 157.436 199.485C162.305 202.792 169.928 202.329 173.982 208.855C174.973 210.442 178.013 212.073 181.605 213.308C180.591 201.8 180.877 190.248 178.212 179.269C176.449 171.994 168.87 166.461 170.104 157.135C156.422 156.011 144.481 156.408 131.041 156.231C113.041 155.989 96.3854 148.074 80.17 140.446C90.7232 119.613 131.328 121.972 149.989 128.784C162.459 133.326 173.122 143.445 175.237 156.54C176.119 161.985 172.594 167.982 178.52 172.215C178.278 162.889 177.947 153.057 177.176 143.621C176.427 140.865 172.241 136.081 170.038 134.384C151.862 120.429 134.699 107.003 117.426 92.0999C105 81.3857 95.1957 69.062 87.5727 54.2472C93.8958 45.7596 112.667 55.9227 119.299 60.398C141.33 75.3231 158.78 95.2745 171.029 119.084L171.448 127.814L176.89 134.296C175.942 122.545 179.247 109.428 174.951 99.0444L164.001 72.5894C154.99 50.8301 150.826 12.8892 181.759 3.32133C193.546 -0.316234 206.28 -1.22011 218.376 1.88835C230.471 4.99681 237.565 15.4025 236.816 27.9465C235.208 54.9968 209.827 92.8054 183.037 100.896C182.42 116.505 182.838 131.364 184.16 147.126C193.48 119.9 204.54 96.4871 228.488 78.9606C231.374 76.8442 236.288 74.9483 239.306 77.3733C246.158 82.8407 238.425 112.955 236.111 121.972C231.837 138.595 209.299 156.584 196.784 167.386C194.141 173.625 192.995 181.496 187.84 186.809L189.712 201.822C193.546 196.289 199.538 191.747 201.72 186.125C203.791 180.68 203.747 175.323 207.536 170.627C217.957 157.686 228.709 145.605 241.619 135.023C247.348 130.327 260.721 120.517 266.802 126.051C268.366 127.484 269.49 131.893 268.564 134.362C261.558 153.409 226.549 174.529 210.158 186.61C201.654 192.871 197.049 203.872 190.924 212.36C208.88 221.994 223.641 215.887 242.743 221.774C261.734 203.453 352.748 111.765 375.176 120.826C386.985 125.588 374.207 153.343 369.492 161.588C346.645 201.469 304.08 234.759 256.843 237.448C264.334 261.17 250.212 295.936 231.617 310.398C217.583 321.311 204.452 322.259 207.47 342.254L209.255 354.071C209.937 360.089 206.831 366.196 203.262 370.429C203.328 386.015 203.592 400.808 204.738 417.938C219.367 405.636 235.406 398.03 247.832 385.376C274.16 358.546 300.488 333.017 331.685 312.47C340.917 306.386 350.567 299.816 361.627 298.449C372.092 297.17 403.972 300.279 411 311.081C400.777 318.246 391.59 322.898 381.411 328.299C362.464 338.352 343.406 346.553 323.864 355.371C310.293 361.478 298.528 370.12 284.912 375.852L258.341 387.007C248.603 391.086 211.766 416.35 204.452 426.381L202.865 453.233L202.028 493.555C210.488 490.733 215.313 483.237 218.552 476.381C213.374 467.32 215.203 452.814 221.879 443.885C237.565 422.898 271.054 387.404 297.426 383.061C304.124 381.959 312.341 386.368 311.725 393.709C309.676 418.136 244.792 461.522 224.589 475.102C219.323 485.728 212.185 494.216 201.742 499.617C201.83 505.173 200.772 512.007 202.182 516.637C204.209 523.339 202.513 527.704 202.182 533.987C200.882 558.127 202.248 582.003 202.27 606.43V661.125C199.847 664.366 191.739 663.131 190.043 659.516L192.048 581.077C192.312 571.134 185.769 561.28 178.542 555.878V555.922ZM194.03 165.843L184.997 158.37L187.311 181.033C190.968 176.271 194.405 170.12 194.053 165.843H194.03ZM203.791 337.889C203.791 337.338 201.896 334.847 201.852 335.222C201.103 341.372 201.169 353.828 203.416 359.538L203.791 337.889ZM196.696 447.104C197.379 425.984 196.807 407.686 195.837 388.396L175.061 365.138C180.547 388.198 183.742 408.634 184.865 431.033C187.575 436.853 191.783 442.938 196.674 447.104H196.696ZM192.554 566.857L192.907 545.23L181.715 553.034L192.554 566.857Z" fill="currentColor"/>
</svg>
